<svg xmlns="http://www.w3.org/2000/svg" viewBox="0 0 22 22"><defs><style>.cls-1{fill:#cad2df;}</style></defs><title>calendar</title><g id="Слой_2" data-name="Слой 2"><g id="Слой_1-2" data-name="Слой 1"><path class="cls-1" d="M.64,17.6H17.49a.58.58,0,0,0,.41-.17c.16-.15,3.85-3.77,4.08-11.56H3.89C3.66,12.94.26,16.27.23,16.3a.81.81,0,0,0-.19.82A.64.64,0,0,0,.64,17.6Z"/><path class="cls-1" d="M21.36,1.47H18.13V.73A.68.68,0,0,0,17.49,0a.69.69,0,0,0-.65.73v.74H13.58V.73A.69.69,0,0,0,12.93,0a.68.68,0,0,0-.64.73v.74H9.07V.73A.69.69,0,0,0,8.42,0a.68.68,0,0,0-.64.73v.74H4.55a.68.68,0,0,0-.64.73V4.4H22V2.2A.68.68,0,0,0,21.36,1.47Z"/><path class="cls-1" d="M18.73,18.55a1.78,1.78,0,0,1-1.24.52H3.91v2.2a.69.69,0,0,0,.64.73H21.36a.69.69,0,0,0,.64-.73V13.05A14.68,14.68,0,0,1,18.73,18.55Z"/></g></g></svg>