<svg xmlns="http://www.w3.org/2000/svg" viewBox="0 0 15 15"><g id="Слой_2" data-name="Слой 2"><g id="Слой_1-2" data-name="Слой 1"><path d="M7.5,15A7.5,7.5,0,0,1,0,7,7.49,7.49,0,0,1,5.85.18a7.52,7.52,0,0,1,4.7.47,1,1,0,1,1-.81,1.82A5.5,5.5,0,0,0,2,7.14a5.46,5.46,0,0,0,.88,3.35,5.5,5.5,0,0,0,9,.3A5.55,5.55,0,0,0,13,7.5V6.9a1,1,0,1,1,2,0v.6a7.49,7.49,0,0,1-5.37,7.19A7.67,7.67,0,0,1,7.5,15Zm0-5.19a1,1,0,0,1-.71-.29L4.84,7.57A1,1,0,0,1,6.26,6.15L7.5,7.39l5.79-5.8A1,1,0,1,1,14.71,3L8.21,9.52A1,1,0,0,1,7.5,9.81Z"/></g></g></svg>