<svg xmlns="http://www.w3.org/2000/svg" viewBox="0 0 9 7.63"><defs><style>.cls-1{fill:#bababa;}</style></defs><title>double-arrow</title><g id="Слой_2" data-name="Слой 2"><g id="Слой_1-2" data-name="Слой 1"><path class="cls-1" d="M5.17,7.63a.51.51,0,0,1-.36-.15.5.5,0,0,1,0-.7l3-3-3-3a.5.5,0,0,1,0-.7.5.5,0,0,1,.71,0L8.85,3.46A.48.48,0,0,1,9,3.82a.47.47,0,0,1-.15.35L5.52,7.49A.54.54,0,0,1,5.17,7.63ZM.5,7.63a.47.47,0,0,1-.35-.15.48.48,0,0,1,0-.7l3-3-3-3a.48.48,0,0,1,0-.7.48.48,0,0,1,.7,0L4.19,3.46a.51.51,0,0,1,.14.36.5.5,0,0,1-.14.35L.85,7.49A.52.52,0,0,1,.5,7.63Z"/></g></g></svg>