<svg width="13" height="13" viewBox="0 0 13 13" fill="none" xmlns="http://www.w3.org/2000/svg">
<path d="M12.8371 6.34769C13.0728 6.08851 13.05 5.69127 12.7863 5.46066L6.97645 0.37699C6.71274 0.146377 6.28995 0.151208 6.0318 0.387881L0.202187 5.7317C-0.055971 5.96837 -0.0686416 6.3651 0.174133 6.61746L0.32029 6.76967C0.562768 7.02202 0.954709 7.05211 1.19515 6.83667L1.63083 6.44651V12.1585C1.63083 12.509 1.91479 12.7927 2.26499 12.7927H4.53739C4.88759 12.7927 5.17155 12.509 5.17155 12.1585V8.16242H8.07002V12.1585C8.06498 12.5087 8.31555 12.7924 8.66575 12.7924H11.0739C11.4241 12.7924 11.7081 12.5087 11.7081 12.1583V6.52694C11.7081 6.52694 11.8284 6.63237 11.9769 6.76285C12.1251 6.89307 12.4363 6.78866 12.672 6.52923L12.8371 6.34769Z" fill="#137461"/>
</svg>
