<svg xmlns="http://www.w3.org/2000/svg" viewBox="0 0 95.68 16"><defs><style>.cls-1{fill:#fff;}</style></defs><title>https</title><g id="Слой_2" data-name="Слой 2"><g id="Слой_1-2" data-name="Слой 1"><path class="cls-1" d="M10.15,6.2V4.13a4.1,4.1,0,0,0-2-3.56A4.13,4.13,0,0,0,3.9.63,4,4,0,0,0,2.54,2.09,4,4,0,0,0,2,4c0,.52,0,1,0,1.57V6.2a1.8,1.8,0,0,0-.61.13A2.21,2.21,0,0,0,0,8.41v5.34a2.24,2.24,0,0,0,1.41,2.1A3.17,3.17,0,0,0,2.6,16H10a2.26,2.26,0,0,0,1.45-.56,2.23,2.23,0,0,0,.73-1.37,5.63,5.63,0,0,0,0-.92V8.56a3.39,3.39,0,0,0,0-.45A2.12,2.12,0,0,0,11.5,6.8,2.2,2.2,0,0,0,10.15,6.2Zm-1.35,0H3.38V5.62c0-.5,0-1,0-1.49a2.71,2.71,0,0,1,4.4-2,2.65,2.65,0,0,1,.88,1.23,4.42,4.42,0,0,1,.15,1.45V6.19Z"/><path class="cls-1" d="M26,3.5h1.72V14H26V9.46h-4.5V14H19.73V3.5h1.73V7.81H26Zm10.84,0V5.15H33.85V14H32.12V5.15h-3V3.5Zm8.3,0V5.15h-3V14H40.42V5.15h-3V3.5Zm5.34,0A3.42,3.42,0,0,1,53.92,7a3.42,3.42,0,0,1-3.48,3.45H48.29V14H46.57V3.5Zm0,5.28a1.68,1.68,0,0,0,1.26-.51A1.84,1.84,0,0,0,52.19,7a1.78,1.78,0,0,0-.49-1.3,1.66,1.66,0,0,0-1.26-.53H48.29V8.78Zm8.37,5.42a4.64,4.64,0,0,1-2.58-.69,3.64,3.64,0,0,1-1.47-1.89l1.49-.87a2.51,2.51,0,0,0,2.61,1.77,2.33,2.33,0,0,0,1.45-.38,1.22,1.22,0,0,0,.5-1,1.09,1.09,0,0,0-.53-1,7.86,7.86,0,0,0-1.86-.75A12.46,12.46,0,0,1,57.21,9a5.91,5.91,0,0,1-1-.54,2.33,2.33,0,0,1-.77-.88,2.79,2.79,0,0,1-.25-1.23,2.71,2.71,0,0,1,1-2.21,3.59,3.59,0,0,1,2.38-.82,3.86,3.86,0,0,1,3.66,2.31l-1.45.84A2.27,2.27,0,0,0,58.57,5a1.87,1.87,0,0,0-1.2.36,1.12,1.12,0,0,0-.45.94,1.11,1.11,0,0,0,.45.93A6.48,6.48,0,0,0,59,7.93l.87.3q.29.09.78.3a3,3,0,0,1,.76.42,5.11,5.11,0,0,1,.54.52,1.75,1.75,0,0,1,.42.72,3.26,3.26,0,0,1,.12.92,2.75,2.75,0,0,1-1,2.26,4.16,4.16,0,0,1-2.69.83Zm5.72,1.3H63.7L69.7,2h.83ZM75.8,14.2a4.64,4.64,0,0,1-2.58-.69,3.64,3.64,0,0,1-1.47-1.89l1.48-.87a2.51,2.51,0,0,0,2.61,1.77,2.36,2.36,0,0,0,1.46-.38,1.21,1.21,0,0,0,.49-1,1.08,1.08,0,0,0-.52-1,7.86,7.86,0,0,0-1.86-.75A12.78,12.78,0,0,1,74.19,9a6.82,6.82,0,0,1-1-.54,2.31,2.31,0,0,1-.76-.88,2.79,2.79,0,0,1-.26-1.23,2.71,2.71,0,0,1,1-2.21,3.61,3.61,0,0,1,2.39-.82,3.93,3.93,0,0,1,2.2.61,4,4,0,0,1,1.46,1.7l-1.46.84A2.26,2.26,0,0,0,75.56,5a1.87,1.87,0,0,0-1.2.36,1.12,1.12,0,0,0-.45.94,1.11,1.11,0,0,0,.45.93A6.37,6.37,0,0,0,76,7.93l.87.3q.28.09.78.3a3.11,3.11,0,0,1,.77.42,5.11,5.11,0,0,1,.54.52,1.75,1.75,0,0,1,.42.72,3.26,3.26,0,0,1,.12.92,2.76,2.76,0,0,1-1,2.26A4.13,4.13,0,0,1,75.8,14.2Zm8.56,0a4.64,4.64,0,0,1-2.58-.69,3.64,3.64,0,0,1-1.47-1.89l1.48-.87a2.51,2.51,0,0,0,2.61,1.77,2.36,2.36,0,0,0,1.46-.38,1.21,1.21,0,0,0,.49-1,1.08,1.08,0,0,0-.52-1A7.86,7.86,0,0,0,84,9.41,12.78,12.78,0,0,1,82.75,9a6.34,6.34,0,0,1-1-.54A2.23,2.23,0,0,1,81,7.57a2.79,2.79,0,0,1-.26-1.23,2.71,2.71,0,0,1,1-2.21,3.61,3.61,0,0,1,2.39-.82,3.93,3.93,0,0,1,2.2.61,4,4,0,0,1,1.46,1.7l-1.46.84A2.26,2.26,0,0,0,84.12,5a1.87,1.87,0,0,0-1.2.36,1.12,1.12,0,0,0-.45.94,1.11,1.11,0,0,0,.45.93,6.37,6.37,0,0,0,1.66.71l.87.3q.28.09.78.3A3.11,3.11,0,0,1,87,9a5.11,5.11,0,0,1,.54.52,1.75,1.75,0,0,1,.42.72,3.26,3.26,0,0,1,.12.92,2.76,2.76,0,0,1-1,2.26A4.13,4.13,0,0,1,84.36,14.2Zm7-1.85h4.27V14h-6V3.5h1.73v8.85Z"/></g></g></svg>