<svg xmlns="http://www.w3.org/2000/svg" viewBox="0 0 9.15 15.8"><defs><style>.cls-1{fill:#fff;}</style></defs><title>ok</title><g id="Слой_2" data-name="Слой 2"><g id="Слой_1-2" data-name="Слой 1"><path class="cls-1" d="M4.57,2.39a1.72,1.72,0,0,0-1.19.49A1.69,1.69,0,0,0,5.77,5.27a1.7,1.7,0,0,0,0-2.39A1.73,1.73,0,0,0,4.57,2.39Zm0,5.76A4.06,4.06,0,1,1,7.46,7,4.1,4.1,0,0,1,4.57,8.15ZM2.93,11.48a7.82,7.82,0,0,1-2.37-1A1.2,1.2,0,0,1,0,9.75a1.19,1.19,0,0,1,1.8-1.27,5.22,5.22,0,0,0,5.49,0,1.19,1.19,0,1,1,1.27,2,7.82,7.82,0,0,1-2.37,1L8.5,13.76a1.2,1.2,0,0,1,.26,1.3,1.27,1.27,0,0,1-.26.39,1.14,1.14,0,0,1-.39.25,1.18,1.18,0,0,1-.45.1,1.23,1.23,0,0,1-.46-.1,1.11,1.11,0,0,1-.39-.26L4.58,13.2,2.34,15.44a1.19,1.19,0,0,1-.85.35,1.15,1.15,0,0,1-.84-.35,1.18,1.18,0,0,1,0-1.68Z"/></g></g></svg>