<svg width="19" height="22" viewBox="0 0 19 22" fill="none" xmlns="http://www.w3.org/2000/svg">
<path d="M8.52539 8.81348C8.61974 9.8602 8.94426 10.883 9.49929 11.7662C10.0543 10.883 10.3788 9.86015 10.4732 8.81348H8.52539Z" fill="#CAD2DF"/>
<path d="M6.72868 5.43254C6.13141 6.02254 5.76878 6.75739 5.63867 7.52365H7.2172C7.29406 6.48798 7.55529 5.49613 7.98269 4.60156C7.52666 4.78994 7.09935 5.0664 6.72868 5.43254Z" fill="#CAD2DF"/>
<path d="M7.2172 8.81348H5.63867C5.76878 9.57974 6.13137 10.3146 6.72868 10.9046C7.09935 11.2707 7.52662 11.5471 7.98264 11.7355C7.55529 10.841 7.29406 9.84915 7.2172 8.81348Z" fill="#CAD2DF"/>
<path d="M9.49929 4.5708C8.94426 5.45394 8.61974 6.47681 8.52539 7.52348H10.4732C10.3788 6.47681 10.0543 5.45394 9.49929 4.5708Z" fill="#CAD2DF"/>
<path d="M12.2698 5.43254C11.8991 5.06644 11.4717 4.78998 11.0156 4.60156C11.443 5.49613 11.7042 6.48798 11.7811 7.52365H13.3598C13.2297 6.75739 12.8671 6.02254 12.2698 5.43254Z" fill="#CAD2DF"/>
<path d="M3 0C1.34315 0 0 1.34315 0 3V19C0 20.6569 1.34315 22 3 22H16C17.6569 22 19 20.6569 19 19V3C19 1.34315 17.6569 0 16 0H3ZM14.0068 17.4873C14.0068 17.8435 13.7181 18.1322 13.3619 18.1322H5.62887C5.27272 18.1322 4.984 17.8435 4.984 17.4873C4.984 17.1312 5.27272 16.8425 5.62887 16.8425H13.3619C13.7181 16.8425 14.0068 17.1312 14.0068 17.4873ZM13.1931 11.8164C12.3051 12.6936 11.1741 13.1881 10.0122 13.3002C10.0053 13.3085 9.99863 13.3168 9.99171 13.325L9.96853 13.3041C9.81266 13.3179 9.65632 13.325 9.49993 13.325C9.3435 13.325 9.18712 13.3178 9.03117 13.3041L9.00798 13.325C9.00106 13.3168 8.99441 13.3084 8.98754 13.3002C7.82566 13.1881 6.69481 12.6935 5.80682 11.8164C3.7704 9.80487 3.7704 6.53189 5.80682 4.5204C6.69477 3.64328 7.82562 3.14875 8.98754 3.0366C8.99441 3.02839 9.00111 3.02002 9.00802 3.01181L9.03125 3.03273C9.34303 3.00523 9.6568 3.00523 9.96853 3.03273L9.99171 3.01185C9.99863 3.02002 10.0053 3.02839 10.0122 3.0366C11.1741 3.14871 12.305 3.64328 13.193 4.52048C15.2295 6.53198 15.2295 9.80491 13.1931 11.8164Z" fill="#CAD2DF"/>
<path d="M11.7811 8.81348C11.7043 9.8492 11.443 10.841 11.0156 11.7357C11.4718 11.5472 11.8991 11.2707 12.2698 10.9046C12.8671 10.3146 13.2297 9.57974 13.3598 8.81348H11.7811Z" fill="#CAD2DF"/>
</svg>
