<svg xmlns="http://www.w3.org/2000/svg" viewBox="0 0 17 10"><defs><style>.cls-1{fill:#e1e9f0;}</style></defs><title>rise</title><g id="Слой_2" data-name="Слой 2"><g id="Слой_1-2" data-name="Слой 1"><path class="cls-1" d="M1,10a1,1,0,0,1-.71-.3,1,1,0,0,1,0-1.41l5.11-5a1,1,0,0,1,1.4,0L9.52,5.93l4-3.93H11.91a1,1,0,0,1,0-2H16a1.22,1.22,0,0,1,.38.07,1.19,1.19,0,0,1,.33.22h0a1.49,1.49,0,0,1,.2.31A1.22,1.22,0,0,1,17,1V5a1,1,0,0,1-2,0V3.38L10.22,8.05a1,1,0,0,1-1.4,0L6.11,5.4,1.7,9.71A1,1,0,0,1,1,10Z"/></g></g></svg>