<svg xmlns="http://www.w3.org/2000/svg" viewBox="0 0 16 9.52"><defs><style>.cls-1{fill:#fff;}</style></defs><title>vk</title><g id="Слой_2" data-name="Слой 2"><g id="Слой_1-2" data-name="Слой 1"><path class="cls-1" d="M15.62.66c.12-.37,0-.64-.52-.64H13.35a.76.76,0,0,0-.76.49,14.86,14.86,0,0,1-2.15,3.57c-.41.41-.59.55-.81.55s-.28-.14-.28-.51V.64C9.35.2,9.22,0,8.85,0H6.1a.42.42,0,0,0-.44.41c0,.42.63.52.69,1.71V4.69c0,.56-.1.66-.32.66-.59,0-2-2.18-2.9-4.67C3,.19,2.8,0,2.36,0H.59C.08,0,0,.24,0,.49,0,1,.59,3.25,2.76,6.3A6.79,6.79,0,0,0,8.1,9.51c1.12,0,1.25-.26,1.25-.68V7.25c0-.51.1-.59.46-.59s.71.14,1.75,1.14C12.74,9,13,9.52,13.61,9.52h1.74c.51,0,.75-.25.61-.74a7.49,7.49,0,0,0-1.47-2c-.41-.48-1-1-1.21-1.26s-.18-.47,0-.78a22.57,22.57,0,0,0,2.34-4"/></g></g></svg>