<svg width="206" height="208" viewBox="0 0 206 208" fill="none" xmlns="http://www.w3.org/2000/svg">
<path d="M192.404 190.611L191.168 190.247C189.934 189.884 188.659 189.752 187.379 189.856C186.376 189.936 185.379 189.834 184.415 189.552L42.9266 154.341C43.6012 153.096 44.4292 151.859 45.4248 150.593C47.3945 150.703 49.2276 149.386 49.7796 147.48C50.4367 145.212 49.108 142.767 46.8583 142.104L33.5129 138.174C31.2372 137.504 28.8454 138.826 28.1807 141.12C27.6034 143.112 28.5169 145.193 30.2581 146.145C30.4202 147.744 30.457 149.231 30.3614 150.64L28.9358 150.221C26.8214 149.607 24.5392 150.854 23.9204 152.99C23.2953 155.148 24.528 157.417 26.6684 158.047L28.0904 158.466C27.4168 159.706 26.5909 160.939 25.5984 162.2C23.6258 162.061 21.7495 163.318 21.1729 165.308C20.5083 167.602 21.8188 170.014 24.0942 170.684L37.4397 174.614C39.686 175.275 42.1156 173.933 42.7718 171.669C43.323 169.766 42.485 167.664 40.7713 166.686C40.6064 165.078 40.568 163.584 40.6628 162.168L182.148 197.378C183.112 197.662 184.007 198.116 184.808 198.729C185.832 199.51 186.976 200.091 188.21 200.456L189.446 200.82C191.965 201.562 194.923 199.928 195.659 197.387L195.807 196.876C196.567 194.252 195.006 191.377 192.404 190.611ZM40.2382 154.575C39.8038 155.52 39.4402 156.493 39.1576 157.469C38.3697 160.188 38.1947 163.048 38.3955 165.864L28.0279 162.811C29.7007 160.547 31.08 158.042 31.8678 155.322C32.6539 152.609 32.83 149.756 32.6313 146.946L42.9864 149.995C41.9297 151.427 40.9838 152.954 40.2382 154.575ZM30.3846 141.769C30.6901 140.714 31.823 140.088 32.8692 140.396L46.2146 144.326C47.2693 144.637 47.8731 145.772 47.5759 146.831C47.3055 147.764 46.2492 148.525 45.2696 148.237L31.6456 144.225C30.6401 143.929 30.0983 142.757 30.3846 141.769ZM27.3121 155.825C26.3868 155.552 25.8539 154.572 26.1242 153.639C26.3906 152.719 27.38 152.174 28.292 152.442L30.069 152.966C29.8519 154.122 29.5228 155.256 29.0873 156.348L27.3121 155.825ZM40.5679 171.02C40.2584 172.089 39.1438 172.704 38.0834 172.392L24.7379 168.462C23.6776 168.15 23.067 167.026 23.3767 165.957C23.6821 164.902 24.8152 164.276 25.8613 164.585L39.2068 168.515C40.2543 168.823 40.874 169.963 40.5679 171.02ZM193.603 196.227L193.455 196.738C193.07 198.069 191.41 198.987 190.089 198.598L188.855 198.235C187.891 197.949 186.995 197.494 186.194 196.883C185.17 196.101 184.025 195.519 182.791 195.156L40.9533 159.842C41.1694 158.685 41.4973 157.552 41.9314 156.459L183.773 191.774C185.006 192.135 186.281 192.266 187.562 192.163C188.563 192.082 189.559 192.185 190.524 192.469L191.76 192.833C193.172 193.248 194.016 194.803 193.603 196.227Z" fill="#DDE9E5"/>
<path d="M102.795 76.3755V66.3549C100.83 64.7831 97.0182 61.6394 97.4897 61.6394C98.0792 61.6394 102.795 63.9972 102.205 62.2288C101.616 60.4605 90.4164 53.3872 93.9531 54.5661C96.7824 55.5092 98.2757 54.5661 98.6686 53.9766L88.0587 48.6717C94.5425 49.8505 94.5425 46.9033 94.5425 46.9033C94.5425 46.9033 89.827 46.3139 88.0587 45.7244C86.4868 44.5456 84.1683 42.3057 87.4692 42.7772C91.5953 43.3667 93.9531 36.2934 90.4164 34.525C86.8798 32.7567 85.1114 34.525 85.1114 34.525C85.1114 34.525 83.9326 32.1673 80.3959 33.3461C80.0262 33.4694 76.8592 29.8095 75.0909 30.9884C69.1147 34.9725 73.5191 38.6511 76.8592 40.4195C79.217 41.4019 82.4 43.2488 76.2698 42.7772C70.1396 42.3057 69.7859 43.3667 70.3754 43.9561C63.8915 43.3667 63.3021 48.0822 63.3021 48.0822C63.3021 48.0822 74.5015 53.3872 70.3754 51.6189C67.0745 50.2042 64.6774 50.2435 63.8915 50.44C64.4809 50.2435 66.6029 50.6758 70.3754 53.9766C74.1478 57.2775 77.8416 56.5309 79.217 55.745C88.0587 59.2816 90.4164 75.786 86.2903 78.1438C78.0001 82.8811 75.8768 90.1291 76.2698 94.0587C71.5542 97.9883 62.1232 103.254 62.1232 92.8798C62.1232 82.5056 65.6598 84.6276 67.4281 86.9854C69.1965 81.8769 69.668 70.8347 57.4076 67.5338C45.1472 64.2329 38.9384 57.1203 37.3666 53.9766C36.9736 54.5661 36.6592 56.5702 38.5454 59.8711C40.4317 63.172 26.7566 49.4576 19.6833 42.1878C18.8974 44.5456 17.7971 49.7327 19.6833 51.6189C14.1818 43.9561 5.53663 26.2728 5.53663 26.2728C5.53663 26.2728 -0.357772 34.525 9.66276 48.0822L2 42.7772C2.58944 48.0822 5.41877 59.7532 12.0205 63.9972C18.6223 68.2412 12.4135 65.7655 8.48387 63.9972C8.68035 66.5514 10.488 72.7209 16.1466 76.9649C21.8053 81.2089 14.9677 77.9473 10.8416 75.786C11.824 79.3227 14.9677 86.8676 19.6833 88.7538C24.3988 90.64 20.4692 90.3256 17.915 89.9327C19.8798 94.6482 26.1672 104.315 35.5982 105.258C45.0293 106.201 32.0616 107.223 24.3988 107.616C25.3812 109.777 29.3501 114.1 37.3666 114.1C45.383 114.1 33.2405 116.458 26.1672 117.636C27.346 118.815 31.9437 121.173 40.9032 121.173C49.8628 121.173 40.3138 125.889 34.4194 128.246C35.4018 129.622 39.3707 131.783 47.3871 129.425C55.4035 127.068 49.1554 132.765 45.0293 135.909C47.7801 136.106 53.871 135.673 56.2287 132.373C58.5865 129.072 53.6745 138.463 50.9238 143.572C51.5132 143.965 53.6352 144.279 57.4076 142.393C61.1801 140.507 60.5513 143.179 59.7654 144.751L57.9971 152.414C60.9443 153.003 67.546 152.767 70.3754 147.109C71.5005 149.406 71.5 156.5 71.5 156.5C71.5 156.5 77.5 157 80.5 152L83 158C83.6667 158.333 92.5 156.5 96.5 152" stroke="#DDE9E5" stroke-width="2"/>
<path d="M103 76.3755V66.3549C104.965 64.7831 108.776 61.6394 108.305 61.6394C107.715 61.6394 103 63.9972 103.589 62.2288C104.179 60.4605 115.378 53.3872 111.842 54.5661C109.012 55.5092 107.519 54.5661 107.126 53.9766L117.736 48.6717C111.252 49.8505 111.252 46.9033 111.252 46.9033C111.252 46.9033 115.968 46.3139 117.736 45.7244C119.308 44.5456 121.626 42.3057 118.325 42.7772C114.199 43.3667 111.842 36.2934 115.378 34.525C118.915 32.7567 120.683 34.525 120.683 34.525C120.683 34.525 121.862 32.1673 125.399 33.3461C125.769 33.4694 128.935 29.8095 130.704 30.9884C136.68 34.9725 132.276 38.6511 128.935 40.4195C126.578 41.4019 123.395 43.2488 129.525 42.7772C135.655 42.3057 136.009 43.3667 135.419 43.9561C141.903 43.3667 142.493 48.0822 142.493 48.0822C142.493 48.0822 131.293 53.3872 135.419 51.6189C138.72 50.2042 141.117 50.2435 141.903 50.44C141.314 50.2435 139.192 50.6758 135.419 53.9766C131.647 57.2775 127.953 56.5309 126.578 55.745C117.736 59.2816 115.378 75.786 119.504 78.1438C127.795 82.8811 129.918 90.1291 129.525 94.0587C134.24 97.9883 143.672 103.254 143.672 92.8798C143.672 82.5056 140.135 84.6276 138.367 86.9854C136.598 81.8769 136.127 70.8347 148.387 67.5338C160.647 64.2329 166.856 57.1203 168.428 53.9766C168.821 54.5661 169.135 56.5702 167.249 59.8711C165.363 63.172 179.038 49.4576 186.111 42.1878C186.897 44.5456 187.998 49.7327 186.111 51.6189C191.613 43.9561 200.258 26.2728 200.258 26.2728C200.258 26.2728 206.152 34.525 196.132 48.0822L203.795 42.7772C203.205 48.0822 200.376 59.7532 193.774 63.9972C187.172 68.2412 193.381 65.7655 197.311 63.9972C197.114 66.5514 195.307 72.7209 189.648 76.9649C183.989 81.2089 190.827 77.9473 194.953 75.786C193.971 79.3227 190.827 86.8676 186.111 88.7538C181.396 90.64 185.325 90.3256 187.88 89.9327C185.915 94.6482 179.628 104.315 170.196 105.258C160.765 106.201 173.733 107.223 181.396 107.616C180.413 109.777 176.445 114.1 168.428 114.1C160.412 114.1 172.554 116.458 179.628 117.636C178.449 118.815 173.851 121.173 164.891 121.173C155.932 121.173 165.481 125.889 171.375 128.246C170.393 129.622 166.424 131.783 158.408 129.425C150.391 127.068 156.639 132.765 160.765 135.909C158.015 136.106 151.924 135.673 149.566 132.373C147.208 129.072 152.12 138.463 154.871 143.572C154.281 143.965 152.159 144.279 148.387 142.393C144.615 140.507 145.243 143.179 146.029 144.751L147.798 152.414C144.85 153.003 138.249 152.767 135.419 147.109C134.294 149.406 134.295 156.5 134.295 156.5C134.295 156.5 128.295 157 125.295 152L122.795 158C122.128 158.333 113.295 156.5 109.295 152" stroke="#DDE9E5" stroke-width="2"/>
<path d="M114.584 29.8096C114.584 32.1674 106.724 32.3639 102.795 32.1674C102.205 32.1674 91.5953 32.1674 91.5953 29.2202C91.5953 26.8624 99.0616 26.6659 102.795 26.8624C106.724 26.8624 114.584 27.4518 114.584 29.8096Z" stroke="#DDE9E5" stroke-width="2"/>
<path d="M114.583 29.8094C114.976 28.2375 116.47 24.6223 119.299 22.7361C122.836 20.3783 126.962 8.00014 115.762 8.00014C111.01 8.00014 108.689 9.76844 108.689 10.3578C107.51 9.96486 104.799 9.17893 103.384 9.17893C101.969 9.17893 99.2579 9.96486 98.079 10.3578C96.5071 9.1789 92.8092 8 89.8268 8C86.8797 8 80.3957 11.5368 85.7007 19.1995C91.0057 26.8623 91.0057 26.2728 91.5951 29.2201" stroke="#DDE9E5" stroke-width="2"/>
<path d="M163.097 180.707C152.487 173.634 153.076 167.346 151.897 161.255C149.54 161.845 140.698 164.202 140.698 164.202C140.698 164.202 147.771 175.402 150.129 178.349C152.015 180.707 157.595 182.868 160.15 183.064C160.935 182.868 161.211 183.418 158.381 184.833C154.845 186.601 158.381 196.622 158.971 193.085C159.56 189.549 161.328 191.906 163.097 188.37C164.865 184.833 166.044 187.78 166.633 187.78C167.223 187.78 161.918 195.443 164.276 195.443C166.633 195.443 168.402 193.085 168.991 192.496C169.463 192.024 169.974 190.334 170.17 189.548C171.349 188.369 173.235 186.365 171.349 190.138C168.991 194.853 170.76 191.317 170.76 194.264C170.76 197.211 166.044 197.801 170.17 197.801C173.471 197.801 175.868 195.05 176.065 193.675C175.868 193.478 175.829 192.26 177.243 188.959C178.658 185.658 173.707 184.833 171.938 186.012C172.724 185.029 172.528 182.947 170.17 182.475C167.223 181.886 166.044 184.244 166.044 184.244C166.044 184.244 166.634 181.493 166.044 181.296C165.455 180.707 163.587 181.034 163.097 180.707Z" fill="white" stroke="#DDE9E5" stroke-width="2"/>
<path d="M72.7795 173.951C47.5276 183.677 22.3283 186.8 12.8851 187.145C16.4054 187.826 14.378 191.311 13.9114 193.068C11.2987 202.907 18.9559 203.222 23.1111 202.15C27.8453 201.486 44.3431 197.392 72.4599 186.326C107.606 172.492 168.679 159.329 174.028 157.698C179.377 156.067 183.501 156.174 185.436 149.738C186.985 144.589 181.913 141.589 179.183 140.732C154.237 147.753 98.0314 164.226 72.7795 173.951Z" fill="white" stroke="#DDE9E5" stroke-width="2"/>
<path d="M40.4926 180.707C51.1027 173.634 54.5 164.5 54.5 164.5L65 167C65 167 59 174 53.4604 178.349C51.0855 180.214 44.2258 183.458 41.6716 183.654C40.8856 183.458 40.0211 183.418 42.8504 184.833C46.3871 186.601 45.2082 196.622 44.6188 193.085C44.0293 189.548 42.261 191.906 40.4927 188.37C38.7243 184.833 37.5455 187.78 36.956 187.78C36.3666 187.78 41.6716 195.443 39.3138 195.443C36.956 195.443 35.7771 192.496 35.1877 191.906C34.7161 191.435 34.2053 189.745 34.0088 188.959C32.8299 187.78 30.9437 186.365 32.8299 190.138C35.1877 194.853 32.8299 191.317 32.8299 194.264C32.8298 197.211 37.5455 197.801 33.4194 197.801C30.1185 197.801 28.9003 195.05 28.7038 193.675C28.9003 193.478 28.9396 192.26 27.5249 188.959C26.1103 185.658 29.8827 184.833 31.6511 186.012C30.8651 185.029 31.0616 182.947 33.4194 182.475C36.3666 181.886 37.5454 184.243 37.5454 184.243C37.5454 184.243 36.9559 181.493 37.5454 181.296C38.1349 180.707 40.0022 181.034 40.4926 180.707Z" fill="white" stroke="#DDE9E5" stroke-width="2"/>
<path d="M173.412 135.865C170.333 137.307 144.36 149.659 131.058 154.819L178.594 140.716C177.683 137.941 175.8 134.748 173.412 135.865Z" fill="white" stroke="#DDE9E5" stroke-width="2"/>
<path d="M88.8269 194.854C86.4691 190.138 88.6304 183.458 90.0058 180.707L101.795 175.991C105.135 176.777 112.287 178.939 114.173 181.296C116.531 184.244 117.12 194.854 114.762 195.443C112.876 195.914 108.868 192.103 107.1 190.138C107.296 195.246 106.628 205.346 102.384 204.874C98.1401 204.402 97.4721 194.461 97.6685 189.549C95.7037 193.282 89.1216 195.443 88.8269 194.854Z" stroke="#DDE9E5" stroke-width="2"/>
<path d="M56.4999 76.5C44.9999 75.5 26.9999 63 26.9999 63C26.4999 70.5 42.9999 79.0218 42.7262 79.109C41.4999 79.5 31.0991 75.6066 27.4999 73.5C27.9999 78 35.8887 85.7107 48.6206 88.54C48.9999 88.6243 39.9999 87.5 28.9999 83C29.7858 85.5543 34.9102 92.2276 49.9999 96C49.9999 96 47.3242 97.5081 42.9999 97C39.3771 96.5743 33.9999 94.5 33.9999 94.5C35.9647 97.4472 42.9619 104.573 53.3361 102.687" stroke="#DDE9E5" stroke-width="2"/>
<path d="M146 76.5C157.5 75.5 175.5 63 175.5 63C176 70.5 159.5 79.0218 159.774 79.109C161 79.5 171.401 75.6066 175 73.5C174.5 78 166.611 85.7107 153.879 88.54C153.5 88.6243 162.5 87.5 173.5 83C172.714 85.5543 167.59 92.2276 152.5 96C152.5 96 155.176 97.5081 159.5 97C163.123 96.5743 168.5 94.5 168.5 94.5C166.535 97.4472 159.538 104.573 149.164 102.687" stroke="#DDE9E5" stroke-width="2"/>
<path d="M91.5953 24.5044C95.132 24.5044 96.3109 20.9678 96.3109 20.9678C96.3109 20.9678 96.9003 23.7185 99.3862 23.7185C101.872 23.7185 102.795 21.3607 102.795 20.9678C102.795 21.3607 103.769 23.7185 105.716 23.7185C107.664 23.7185 109.279 20.9678 109.279 20.9678C109.279 20.9678 110.878 24.4258 113.994 24.1115" stroke="#DDE9E5" stroke-width="2"/>
<circle cx="102.384" cy="184.833" r="4.89443" fill="white" stroke="#DDE9E5" stroke-width="2"/>
<circle cx="103.5" cy="4.5" r="3.5" stroke="#DDE9E5" stroke-width="2"/>
<path d="M87.054 89.3661C87.054 83.8326 95.911 79.4056 104.214 79.9589C114.843 79.9589 119.714 86.2304 120.821 89.3661H122.482V93.793C126.726 95.2686 135.214 101.761 135.214 115.928C135.214 130.094 126.726 138.431 122.482 140.829V144.149H120.821C118.164 150.79 108.274 152.819 103.661 153.003C93.0325 153.003 87.792 147.1 86.5004 144.149H84.8397V140.276C80.4112 136.771 71.5542 126.995 71.5542 115.928C71.5542 104.86 80.0422 96.9287 84.2861 94.3463V89.3661H87.054Z" stroke="#FFC107" stroke-width="2"/>
<path d="M88.8783 91.5368C88.8783 86.5401 96.8087 82.5427 104.243 83.0422C113.76 83.0422 118.122 88.7053 119.113 91.5368H120.6V95.5342C124.4 96.8667 132 102.73 132 115.521C132 128.313 124.4 135.842 120.6 138.007V141.005H119.113C116.734 147.001 107.878 148.833 103.748 149C94.2313 149 89.5391 143.67 88.3826 141.005H86.8957V137.507C82.9304 134.343 75 125.515 75 115.521C75 105.528 82.6 98.3657 86.4 96.0339V91.5368H88.8783Z" stroke="#FFC107"/>
<rect x="102" y="108" width="4" height="22" rx="2" stroke="#FFC107" stroke-width="2"/>
<rect x="111" y="130" width="3" height="15" rx="1.5" transform="rotate(90 111 130)" stroke="#FFC107" stroke-width="2"/>
<path d="M100.321 116.26L93.7801 101.137C93.5952 100.709 93.1743 100.432 92.7095 100.432H92.7091C92.2442 100.432 91.8237 100.709 91.6381 101.136L85.097 116.22C84.9055 116.662 85.0028 117.177 85.3423 117.517L86.3157 118.494C88.0241 120.209 90.2877 121.153 92.6899 121.153C95.0844 121.153 97.3406 120.215 99.0459 118.511L100.042 117.588C100.407 117.25 100.519 116.717 100.321 116.26ZM97.4453 116.804C97.434 116.814 97.4227 116.825 97.4118 116.836C96.1453 118.108 94.468 118.809 92.6899 118.809C90.9118 118.809 89.235 118.108 87.9681 116.836L87.5573 116.424L92.7083 104.545L97.8487 116.43L97.4453 116.804Z" fill="#FFC107"/>
<path d="M99.2113 115.517H86.1685V117.861H99.2113V115.517Z" fill="#FFC107"/>
<path d="M122.906 119.783L116.365 104.425C116.181 103.994 115.759 103.714 115.291 103.714C115.291 103.714 115.29 103.714 115.29 103.714C114.822 103.715 114.399 103.996 114.216 104.428L107.714 119.785C107.528 120.225 107.626 120.735 107.963 121.073L108.937 122.05C110.645 123.764 112.908 124.708 115.31 124.708C117.713 124.708 119.976 123.764 121.684 122.05L122.658 121.073C122.995 120.734 123.093 120.223 122.906 119.783ZM120.032 120.392C118.765 121.663 117.088 122.364 115.31 122.364C113.532 122.364 111.855 121.663 110.588 120.392L110.172 119.974L115.294 107.876L120.447 119.976L120.032 120.392Z" fill="#FFC107"/>
<path d="M121.832 119.073H108.789V121.417H121.832V119.073Z" fill="#FFC107"/>
<path d="M104.195 99.6112C102.241 99.6112 100.652 101.207 100.652 103.167C100.652 105.128 102.241 106.723 104.195 106.723C106.149 106.723 107.738 105.128 107.738 103.167C107.738 101.207 106.149 99.6112 104.195 99.6112ZM104.195 104.379C103.529 104.379 102.988 103.835 102.988 103.167C102.988 102.499 103.529 101.956 104.195 101.956C104.861 101.956 105.402 102.499 105.402 103.167C105.402 103.835 104.861 104.379 104.195 104.379Z" fill="#FFC107"/>
<path d="M104.195 95C103.55 95 103.027 95.5248 103.027 96.1724V100.705C103.027 101.353 103.55 101.878 104.195 101.878C104.84 101.878 105.363 101.353 105.363 100.705V96.1724C105.363 95.5249 104.84 95 104.195 95Z" fill="#FFC107"/>
<path d="M115.462 103.726L106.741 102.437C106.103 102.341 105.509 102.785 105.415 103.426C105.321 104.066 105.762 104.662 106.4 104.757L115.121 106.046C115.178 106.055 115.236 106.059 115.293 106.059C115.862 106.059 116.361 105.64 116.447 105.057C116.54 104.417 116.1 103.821 115.462 103.726Z" fill="#FFC107"/>
<path d="M101.988 101.772L92.8771 100.444C92.2402 100.348 91.646 100.795 91.5534 101.435C91.4608 102.076 91.903 102.671 92.5415 102.764L101.652 104.093C101.709 104.101 101.765 104.105 101.821 104.105C102.392 104.105 102.891 103.685 102.976 103.101C103.068 102.46 102.626 101.865 101.988 101.772Z" fill="#FFC107"/>
</svg>
