<?xml version="1.0" encoding="UTF-8"?><!DOCTYPE svg PUBLIC "-//W3C//DTD SVG 1.1//EN" "http://www.w3.org/Graphics/SVG/1.1/DTD/svg11.dtd"><svg xmlns="http://www.w3.org/2000/svg" xmlns:xlink="http://www.w3.org/1999/xlink"><symbol id="house"><path d="M12.837 6.348a.62.62 0 00-.05-.887L6.976.377a.724.724 0 00-.945.01L.202 5.733a.616.616 0 00-.028.885l.146.153c.243.252.635.282.875.067l.436-.39v5.712c0 .35.284.634.634.634h2.272c.35 0 .635-.284.635-.634V8.162H8.07v3.996c-.005.35.246.634.596.634h2.408c.35 0 .634-.283.634-.634V6.527l.269.236c.148.13.46.026.695-.234l.165-.181z"/></symbol></svg>