<?xml version="1.0" encoding="UTF-8"?><!DOCTYPE svg PUBLIC "-//W3C//DTD SVG 1.1//EN" "http://www.w3.org/Graphics/SVG/1.1/DTD/svg11.dtd"><svg xmlns="http://www.w3.org/2000/svg" xmlns:xlink="http://www.w3.org/1999/xlink"><symbol id="arrow-down" viewBox="0 0 10 5"><g><path d="M5 5a.46.46 0 01-.33-.13l-4.5-4a.48.48 0 010-.7.48.48 0 01.7 0L5 3.83 9.17.13a.48.48 0 01.7 0 .48.48 0 010 .7l-4.5 4A.46.46 0 015 5z"/></g></symbol><symbol id="arrow-right" viewBox="0 0 15 9"><g><path d="M10.64 9a.52.52 0 01-.35-.14.5.5 0 010-.71l3-3.15H.5a.5.5 0 010-1h12.82l-3-3.15a.5.5 0 11.68-.7l3.86 4a.42.42 0 01.09.14.47.47 0 010 .38.42.42 0 01-.09.14L11 8.85a.51.51 0 01-.36.15z"/></g></symbol><symbol id="double-arrow" viewBox="0 0 9 7.63"><g><path d="M5.17 7.63a.51.51 0 01-.36-.15.5.5 0 010-.7l3-3-3-3a.5.5 0 010-.7.5.5 0 01.71 0l3.33 3.38a.48.48 0 01.15.36.47.47 0 01-.15.35L5.52 7.49a.54.54 0 01-.35.14zm-4.67 0a.47.47 0 01-.35-.15.48.48 0 010-.7l3-3-3-3a.48.48 0 010-.7.48.48 0 01.7 0l3.34 3.38a.51.51 0 01.14.36.5.5 0 01-.14.35L.85 7.49a.52.52 0 01-.35.14z"/></g></symbol><symbol id="house"><path d="M12.837 6.348a.62.62 0 00-.05-.887L6.976.377a.724.724 0 00-.945.01L.202 5.733a.616.616 0 00-.028.885l.146.153c.243.252.635.282.875.067l.436-.39v5.712c0 .35.284.634.634.634h2.272c.35 0 .635-.284.635-.634V8.162H8.07v3.996c-.005.35.246.634.596.634h2.408c.35 0 .634-.283.634-.634V6.527l.269.236c.148.13.46.026.695-.234l.165-.181z"/></symbol><symbol id="owl-arrow" viewBox="0 0 6.41 10"><g><path d="M5.41 10a1 1 0 01-.72-.31L0 4.79 4.72.28a1 1 0 011.42 0 1 1 0 010 1.41L2.83 4.86l3.31 3.45a1 1 0 010 1.41 1 1 0 01-.73.28z"/></g></symbol><symbol id="rise" viewBox="0 0 17 10"><g><path d="M1 10a1 1 0 01-.71-.3 1 1 0 010-1.41l5.11-5a1 1 0 011.4 0l2.72 2.64 4-3.93h-1.61a1 1 0 010-2H16a1.22 1.22 0 01.38.07 1.19 1.19 0 01.33.22 1.49 1.49 0 01.2.31A1.22 1.22 0 0117 1v4a1 1 0 01-2 0V3.38l-4.78 4.67a1 1 0 01-1.4 0L6.11 5.4 1.7 9.71A1 1 0 011 10z"/></g></symbol></svg>