<?xml version="1.0" encoding="UTF-8"?><!DOCTYPE svg PUBLIC "-//W3C//DTD SVG 1.1//EN" "http://www.w3.org/Graphics/SVG/1.1/DTD/svg11.dtd"><svg xmlns="http://www.w3.org/2000/svg" xmlns:xlink="http://www.w3.org/1999/xlink"><defs><style>.cls-1{fill:#cad2df}</style><style>.cls-1{fill:#fff}</style></defs><symbol id="angle-left" viewBox="0 0 5.17 10"><g><path d="M4.67 10a.52.52 0 01-.38-.17L0 5 4.29.17A.5.5 0 015 .13a.48.48 0 010 .7L1.34 5 5 9.17a.48.48 0 010 .7.46.46 0 01-.33.13z"/></g></symbol><symbol id="angle-right" viewBox="0 0 5.17 10"><g><path d="M.5 10a.46.46 0 01-.33-.13.48.48 0 010-.7L3.83 5 .13.83a.48.48 0 010-.7.48.48 0 01.7 0L5.17 5 .87 9.83A.5.5 0 01.5 10z"/></g></symbol><symbol id="arrow-down" viewBox="0 0 10 5"><g><path d="M5 5a.46.46 0 01-.33-.13l-4.5-4a.48.48 0 010-.7.48.48 0 01.7 0L5 3.83 9.17.13a.48.48 0 01.7 0 .48.48 0 010 .7l-4.5 4A.46.46 0 015 5z"/></g></symbol><symbol id="arrow-right" viewBox="0 0 15 9"><g><path d="M10.64 9a.52.52 0 01-.35-.14.5.5 0 010-.71l3-3.15H.5a.5.5 0 010-1h12.82l-3-3.15a.5.5 0 11.68-.7l3.86 4a.42.42 0 01.09.14.47.47 0 010 .38.42.42 0 01-.09.14L11 8.85a.51.51 0 01-.36.15z"/></g></symbol><symbol id="calendar" viewBox="0 0 22 22"><g id="&#x421;&#x43B;&#x43E;&#x439;_2"><g id="&#x421;&#x43B;&#x43E;&#x439;_1-2"><path class="cls-1" d="M.64 17.6h16.85a.58.58 0 00.41-.17c.16-.15 3.85-3.77 4.08-11.56H3.89C3.66 12.94.26 16.27.23 16.3a.81.81 0 00-.19.82.64.64 0 00.6.48zM21.36 1.47h-3.23V.73a.68.68 0 00-.64-.73.69.69 0 00-.65.73v.74h-3.26V.73a.69.69 0 00-.65-.73.68.68 0 00-.64.73v.74H9.07V.73A.69.69 0 008.42 0a.68.68 0 00-.64.73v.74H4.55a.68.68 0 00-.64.73v2.2H22V2.2a.68.68 0 00-.64-.73z"/><path class="cls-1" d="M18.73 18.55a1.78 1.78 0 01-1.24.52H3.91v2.2a.69.69 0 00.64.73h16.81a.69.69 0 00.64-.73v-8.22a14.68 14.68 0 01-3.27 5.5z"/></g></g></symbol><symbol id="cancel" viewBox="0 0 7 7"><g><path d="M6.5 7a.47.47 0 01-.35-.15L3.5 4.21.85 6.85a.48.48 0 01-.7 0 .48.48 0 010-.7L2.79 3.5.15.85a.48.48 0 010-.7.48.48 0 01.7 0L3.5 2.79 6.15.15a.48.48 0 01.7 0 .48.48 0 010 .7L4.21 3.5l2.64 2.65a.48.48 0 010 .7.47.47 0 01-.35.15z"/></g></symbol><symbol id="check" viewBox="0 0 8 6"><g><path d="M2.88 6a1 1 0 01-.7-.28L.3 3.9a1 1 0 011.4-1.44l1.18 1.15L6.3.28A1 1 0 017.72.3a1 1 0 010 1.42l-4.13 4a1 1 0 01-.71.28z"/></g></symbol><symbol id="clock" viewBox="0 0 14 14"><g><path d="M7 14a7 7 0 117-7 7 7 0 01-7 7zM7 2a5 5 0 105 5 5 5 0 00-5-5zm2.4 7.2a.93.93 0 01-.4-.11l-2.4-1.2A1 1 0 016 7V3.4a1 1 0 012 0v3l1.85.93a1 1 0 01.44 1.34 1 1 0 01-.89.53z"/></g></symbol><symbol id="double-arrow" viewBox="0 0 9 7.63"><g><path d="M5.17 7.63a.51.51 0 01-.36-.15.5.5 0 010-.7l3-3-3-3a.5.5 0 010-.7.5.5 0 01.71 0l3.33 3.38a.48.48 0 01.15.36.47.47 0 01-.15.35L5.52 7.49a.54.54 0 01-.35.14zm-4.67 0a.47.47 0 01-.35-.15.48.48 0 010-.7l3-3-3-3a.48.48 0 010-.7.48.48 0 01.7 0l3.34 3.38a.51.51 0 01.14.36.5.5 0 01-.14.35L.85 7.49a.52.52 0 01-.35.14z"/></g></symbol><symbol id="eye" viewBox="0 0 18 14"><g><g><path d="M9 14C3.35 14 .23 7.7.1 7.44a1 1 0 010-.88C.23 6.3 3.35 0 9 0s8.77 6.3 8.9 6.56a1 1 0 010 .88C17.77 7.7 14.65 14 9 14zM2.14 7c.75 1.29 3.21 5 6.86 5s6.12-3.71 6.86-5C15.11 5.71 12.65 2 9 2S2.88 5.71 2.14 7z"/><path d="M9 10.25A3.25 3.25 0 1112.18 7 3.22 3.22 0 019 10.25zm0-4.5A1.25 1.25 0 1010.18 7 1.22 1.22 0 009 5.75z"/></g></g></symbol><symbol id="fb" viewBox="0 0 8.36 16"><g><path d="M5.42 16V8.7h2.47l.37-2.84H5.42V4c0-.82.23-1.38 1.42-1.38h1.52V.11A20.44 20.44 0 006.15 0a3.44 3.44 0 00-3.68 3.76v2.1H0V8.7h2.47V16z"/></g></symbol><symbol id="house"><path d="M12.837 6.348a.62.62 0 00-.05-.887L6.976.377a.724.724 0 00-.945.01L.202 5.733a.616.616 0 00-.028.885l.146.153c.243.252.635.282.875.067l.436-.39v5.712c0 .35.284.634.634.634h2.272c.35 0 .635-.284.635-.634V8.162H8.07v3.996c-.005.35.246.634.596.634h2.408c.35 0 .634-.283.634-.634V6.527l.269.236c.148.13.46.026.695-.234l.165-.181z"/></symbol><symbol id="https" viewBox="0 0 95.68 16"><g id="&#x421;&#x43B;&#x43E;&#x439;_2"><g id="&#x421;&#x43B;&#x43E;&#x439;_1-2"><path class="cls-1" d="M10.15 6.2V4.13a4.1 4.1 0 00-2-3.56A4.13 4.13 0 003.9.63a4 4 0 00-1.36 1.46A4 4 0 002 4v2.2a1.8 1.8 0 00-.61.13A2.21 2.21 0 000 8.41v5.34a2.24 2.24 0 001.41 2.1A3.17 3.17 0 002.6 16H10a2.26 2.26 0 001.45-.56 2.23 2.23 0 00.73-1.37 5.63 5.63 0 000-.92V8.56a3.39 3.39 0 000-.45 2.12 2.12 0 00-.68-1.31 2.2 2.2 0 00-1.35-.6zm-1.35 0H3.38v-.58-1.49a2.71 2.71 0 014.4-2 2.65 2.65 0 01.88 1.23 4.42 4.42 0 01.15 1.45v1.38zM26 3.5h1.72V14H26V9.46h-4.5V14h-1.77V3.5h1.73v4.31H26zm10.84 0v1.65h-2.99V14h-1.73V5.15h-3V3.5zm8.3 0v1.65h-3V14h-1.72V5.15h-3V3.5zm5.34 0A3.42 3.42 0 0153.92 7a3.42 3.42 0 01-3.48 3.45h-2.15V14h-1.72V3.5zm0 5.28a1.68 1.68 0 001.26-.51A1.84 1.84 0 0052.19 7a1.78 1.78 0 00-.49-1.3 1.66 1.66 0 00-1.26-.53h-2.15v3.61zm8.37 5.42a4.64 4.64 0 01-2.58-.69 3.64 3.64 0 01-1.47-1.89l1.49-.87a2.51 2.51 0 002.61 1.77 2.33 2.33 0 001.45-.38 1.22 1.22 0 00.5-1 1.09 1.09 0 00-.53-1 7.86 7.86 0 00-1.86-.75A12.46 12.46 0 0157.21 9a5.91 5.91 0 01-1-.54 2.33 2.33 0 01-.77-.88 2.79 2.79 0 01-.25-1.23 2.71 2.71 0 011-2.21 3.59 3.59 0 012.38-.82 3.86 3.86 0 013.66 2.31l-1.45.84A2.27 2.27 0 0058.57 5a1.87 1.87 0 00-1.2.36 1.12 1.12 0 00-.45.94 1.11 1.11 0 00.45.93 6.48 6.48 0 001.63.7l.87.3q.29.09.78.3a3 3 0 01.76.42 5.11 5.11 0 01.54.52 1.75 1.75 0 01.42.72 3.26 3.26 0 01.12.92 2.75 2.75 0 01-1 2.26 4.16 4.16 0 01-2.69.83zm5.72 1.3h-.87l6-13.5h.83zm11.23-1.3a4.64 4.64 0 01-2.58-.69 3.64 3.64 0 01-1.47-1.89l1.48-.87a2.51 2.51 0 002.61 1.77 2.36 2.36 0 001.46-.38 1.21 1.21 0 00.49-1 1.08 1.08 0 00-.52-1 7.86 7.86 0 00-1.86-.75A12.78 12.78 0 0174.19 9a6.82 6.82 0 01-1-.54 2.31 2.31 0 01-.76-.88 2.79 2.79 0 01-.26-1.23 2.71 2.71 0 011-2.21 3.61 3.61 0 012.39-.82 3.93 3.93 0 012.2.61 4 4 0 011.46 1.7l-1.46.84A2.26 2.26 0 0075.56 5a1.87 1.87 0 00-1.2.36 1.12 1.12 0 00-.45.94 1.11 1.11 0 00.45.93 6.37 6.37 0 001.64.7l.87.3q.28.09.78.3a3.11 3.11 0 01.77.42 5.11 5.11 0 01.54.52 1.75 1.75 0 01.42.72 3.26 3.26 0 01.12.92 2.76 2.76 0 01-1 2.26 4.13 4.13 0 01-2.7.83zm8.56 0a4.64 4.64 0 01-2.58-.69 3.64 3.64 0 01-1.47-1.89l1.48-.87a2.51 2.51 0 002.61 1.77 2.36 2.36 0 001.46-.38 1.21 1.21 0 00.49-1 1.08 1.08 0 00-.52-1A7.86 7.86 0 0084 9.41 12.78 12.78 0 0182.75 9a6.34 6.34 0 01-1-.54 2.23 2.23 0 01-.75-.89 2.79 2.79 0 01-.26-1.23 2.71 2.71 0 011-2.21 3.61 3.61 0 012.39-.82 3.93 3.93 0 012.2.61 4 4 0 011.46 1.7l-1.46.84A2.26 2.26 0 0084.12 5a1.87 1.87 0 00-1.2.36 1.12 1.12 0 00-.45.94 1.11 1.11 0 00.45.93 6.37 6.37 0 001.66.71l.87.3q.28.09.78.3A3.11 3.11 0 0187 9a5.11 5.11 0 01.54.52 1.75 1.75 0 01.42.72 3.26 3.26 0 01.12.92 2.76 2.76 0 01-1 2.26 4.13 4.13 0 01-2.72.78zm7-1.85h4.27V14h-6V3.5h1.73v8.85z"/></g></g></symbol><symbol id="ok" viewBox="0 0 9.15 15.8"><g><path d="M4.57 2.39a1.72 1.72 0 00-1.19.49 1.69 1.69 0 002.39 2.39 1.7 1.7 0 000-2.39 1.73 1.73 0 00-1.2-.49zm0 5.76A4.06 4.06 0 117.46 7a4.1 4.1 0 01-2.89 1.15zm-1.64 3.33a7.82 7.82 0 01-2.37-1A1.2 1.2 0 010 9.75a1.19 1.19 0 011.8-1.27 5.22 5.22 0 005.49 0 1.19 1.19 0 111.27 2 7.82 7.82 0 01-2.37 1l2.31 2.28a1.2 1.2 0 01.26 1.3 1.27 1.27 0 01-.26.39 1.14 1.14 0 01-.39.25 1.18 1.18 0 01-.45.1 1.23 1.23 0 01-.46-.1 1.11 1.11 0 01-.39-.26L4.58 13.2l-2.24 2.24a1.19 1.19 0 01-.85.35 1.15 1.15 0 01-.84-.35 1.18 1.18 0 010-1.68z"/></g></symbol><symbol id="owl-arrow" viewBox="0 0 6.41 10"><g><path d="M5.41 10a1 1 0 01-.72-.31L0 4.79 4.72.28a1 1 0 011.42 0 1 1 0 010 1.41L2.83 4.86l3.31 3.45a1 1 0 010 1.41 1 1 0 01-.73.28z"/></g></symbol><symbol id="passport"><path d="M8.525 8.813a6.685 6.685 0 00.974 2.953c.555-.883.88-1.906.974-2.953H8.525zM6.729 5.433a3.83 3.83 0 00-1.09 2.09h1.578a8.183 8.183 0 01.766-2.921 3.898 3.898 0 00-1.254.83zM7.217 8.813H5.64a3.83 3.83 0 001.09 2.092c.37.366.798.642 1.254.83a8.183 8.183 0 01-.766-2.922zM9.5 4.57a6.685 6.685 0 00-.975 2.953h1.948A6.686 6.686 0 009.5 4.571zM12.27 5.433a3.9 3.9 0 00-1.254-.831c.427.894.688 1.886.765 2.922h1.579a3.83 3.83 0 00-1.09-2.091z"/><path d="M3 0a3 3 0 00-3 3v16a3 3 0 003 3h13a3 3 0 003-3V3a3 3 0 00-3-3H3zm11.007 17.487a.645.645 0 01-.645.645H5.629a.645.645 0 110-1.29h7.733c.356 0 .645.29.645.645zm-.814-5.67a5.226 5.226 0 01-3.18 1.483l-.021.025-.023-.02a5.314 5.314 0 01-.938 0l-.023.02-.02-.025a5.226 5.226 0 01-3.181-1.484 5.12 5.12 0 010-7.296 5.226 5.226 0 013.18-1.483l.021-.025.023.02c.312-.027.626-.027.938 0l.023-.02.02.025a5.226 5.226 0 013.181 1.483 5.12 5.12 0 010 7.296z"/><path d="M11.781 8.813a8.183 8.183 0 01-.765 2.923 3.9 3.9 0 001.254-.831 3.83 3.83 0 001.09-2.092H11.78z"/></symbol><symbol id="rise" viewBox="0 0 17 10"><g><path d="M1 10a1 1 0 01-.71-.3 1 1 0 010-1.41l5.11-5a1 1 0 011.4 0l2.72 2.64 4-3.93h-1.61a1 1 0 010-2H16a1.22 1.22 0 01.38.07 1.19 1.19 0 01.33.22 1.49 1.49 0 01.2.31A1.22 1.22 0 0117 1v4a1 1 0 01-2 0V3.38l-4.78 4.67a1 1 0 01-1.4 0L6.11 5.4 1.7 9.71A1 1 0 011 10z"/></g></symbol><symbol id="vk" viewBox="0 0 16 9.52"><g><path d="M15.62.66c.12-.37 0-.64-.52-.64h-1.75a.76.76 0 00-.76.49 14.86 14.86 0 01-2.15 3.57c-.41.41-.59.55-.81.55s-.28-.14-.28-.51V.64c0-.44-.13-.64-.5-.64H6.1a.42.42 0 00-.44.41c0 .42.63.52.69 1.71v2.57c0 .56-.1.66-.32.66-.59 0-2-2.18-2.9-4.67C3 .19 2.8 0 2.36 0H.59C.08 0 0 .24 0 .49 0 1 .59 3.25 2.76 6.3A6.79 6.79 0 008.1 9.51c1.12 0 1.25-.26 1.25-.68V7.25c0-.51.1-.59.46-.59s.71.14 1.75 1.14C12.74 9 13 9.52 13.61 9.52h1.74c.51 0 .75-.25.61-.74a7.49 7.49 0 00-1.47-2c-.41-.48-1-1-1.21-1.26s-.18-.47 0-.78a22.57 22.57 0 002.34-4"/></g></symbol><symbol id="warning" viewBox="0 0 20 20"><g><path d="M10 20a10 10 0 1110-10 10 10 0 01-10 10zm0-18a8 8 0 108 8 8 8 0 00-8-8zm0 12.6a1 1 0 110-2 1 1 0 010 2zm0-3.6a1 1 0 01-1-1V6.4a1 1 0 112 0V10a1 1 0 01-1 1z"/></g></symbol></svg>