<?xml version="1.0" encoding="UTF-8"?><!DOCTYPE svg PUBLIC "-//W3C//DTD SVG 1.1//EN" "http://www.w3.org/Graphics/SVG/1.1/DTD/svg11.dtd"><svg xmlns="http://www.w3.org/2000/svg" xmlns:xlink="http://www.w3.org/1999/xlink"><symbol id="arrow-down" viewBox="0 0 10 5"><g><path d="M5 5a.46.46 0 01-.33-.13l-4.5-4a.48.48 0 010-.7.48.48 0 01.7 0L5 3.83 9.17.13a.48.48 0 01.7 0 .48.48 0 010 .7l-4.5 4A.46.46 0 015 5z"/></g></symbol><symbol id="arrow-right" viewBox="0 0 15 9"><g><path d="M10.64 9a.52.52 0 01-.35-.14.5.5 0 010-.71l3-3.15H.5a.5.5 0 010-1h12.82l-3-3.15a.5.5 0 11.68-.7l3.86 4a.42.42 0 01.09.14.47.47 0 010 .38.42.42 0 01-.09.14L11 8.85a.51.51 0 01-.36.15z"/></g></symbol><symbol id="house"><path d="M12.837 6.348a.62.62 0 00-.05-.887L6.976.377a.724.724 0 00-.945.01L.202 5.733a.616.616 0 00-.028.885l.146.153c.243.252.635.282.875.067l.436-.39v5.712c0 .35.284.634.634.634h2.272c.35 0 .635-.284.635-.634V8.162H8.07v3.996c-.005.35.246.634.596.634h2.408c.35 0 .634-.283.634-.634V6.527l.269.236c.148.13.46.026.695-.234l.165-.181z"/></symbol></svg>