<svg width="124" height="103" viewBox="0 0 124 103" fill="none" xmlns="http://www.w3.org/2000/svg">
<path d="M55 103C79.3005 103 99 83.3005 99 59C99 34.6995 79.3005 15 55 15C30.6995 15 11 34.6995 11 59C11 83.3005 30.6995 103 55 103Z" fill="#FFC107"/>
<path opacity="0.1" d="M109 30C117.284 30 124 23.2843 124 15C124 6.71573 117.284 0 109 0C100.716 0 94 6.71573 94 15C94 23.2843 100.716 30 109 30Z" fill="#FFC107"/>
<path opacity="0.1" d="M44 95C68.3005 95 88 75.3005 88 51C88 26.6995 68.3005 7 44 7C19.6995 7 0 26.6995 0 51C0 75.3005 19.6995 95 44 95Z" fill="#FFC107"/>
<path d="M76 47L50.5625 73L39 61.1818" stroke="white" stroke-width="5" stroke-linecap="round" stroke-linejoin="round"/>
</svg>
