<svg width="25" height="25" viewBox="0 0 25 25" fill="none" xmlns="http://www.w3.org/2000/svg">
<path d="M16.6676 12.5C16.0927 12.5 15.6255 12.0328 15.6255 11.4579V10.4174C15.6255 8.12082 13.7568 6.25074 11.4585 6.25074H4.60716C4.16342 6.25074 3.76969 6.53196 3.62282 6.95065L2.026 11.5407C1.83695 12.0844 1.24478 12.3734 0.699491 12.1812C0.155762 11.9922 -0.131727 11.3985 0.0588907 10.8549L1.65571 6.2648C2.09319 5.01027 3.27908 4.16663 4.60716 4.16663H11.4585C14.9052 4.16663 17.7082 6.9694 17.7082 10.4158V11.4579C17.7082 12.0344 17.2426 12.5 16.6676 12.5V12.5Z" fill="#12976A"/>
<path d="M5.67881 20.8334C4.24292 20.8334 3.07422 19.6648 3.07422 18.229C3.07422 16.7932 4.24292 15.6246 5.67881 15.6246C7.11469 15.6246 8.2834 16.7932 8.2834 18.229C8.28184 19.6648 7.11469 20.8334 5.67881 20.8334Z" fill="#EBEDF4"/>
<path d="M19.2188 20.8334C17.783 20.8334 16.6143 19.6648 16.6143 18.229C16.6143 16.7932 17.783 15.6246 19.2188 15.6246C20.6547 15.6246 21.8234 16.7932 21.8234 18.229C21.8234 19.6648 20.6547 20.8334 19.2188 20.8334Z" fill="#EBEDF4"/>
<path d="M7.29312 12.7608C6.71658 12.7608 6.25098 12.2953 6.25098 11.7188V5.73047C6.25098 5.15554 6.71815 4.68842 7.29312 4.68842C7.8681 4.68842 8.33527 5.15554 8.33527 5.73047V11.7188C8.33371 12.2953 7.8681 12.7608 7.29312 12.7608Z" fill="#12976A"/>
<path d="M22.6548 13.542C21.6517 13.542 20.833 12.7249 20.833 11.7188V10.8424C19.9752 10.5643 19.0128 10.4174 17.9691 10.4174H0.782197C0.350963 10.4174 0.000976562 10.7674 0.000976562 11.1986V15.8855C0.000976562 16.9807 0.62439 17.9227 1.52904 18.4039C1.52592 18.3445 1.51186 18.2883 1.51186 18.2289C1.51186 15.9324 3.38054 14.0623 5.67889 14.0623C7.97724 14.0623 9.84436 15.9324 9.84436 18.2289C9.84436 18.407 9.81311 18.5773 9.79123 18.7492H15.1051C15.0832 18.5773 15.052 18.407 15.052 18.2289C15.052 15.9324 16.9207 14.0623 19.219 14.0623C21.5174 14.0623 23.386 15.9308 23.386 18.2289C23.386 18.3086 23.3673 18.3836 23.3626 18.4633C24.3266 18.0024 25 17.5446 25 16.4057C25 15.3246 24.7438 14.3654 24.2876 13.5452L22.6548 13.542Z" fill="#12976A"/>
</svg>
