<svg xmlns="http://www.w3.org/2000/svg" viewBox="0 0 25 25"><defs><style>.cls-1{fill:#12976a;}.cls-2{fill:#91e0c5;}.cls-3{fill:#fff;}</style></defs><title>checklist</title><g id="Слой_2" data-name="Слой 2"><g id="Слой_1-2" data-name="Слой 1"><path class="cls-1" d="M20.05,5.73H5a.78.78,0,0,0-.78.78V24.22a.78.78,0,0,0,.48.72.77.77,0,0,0,.85-.17l2-2,1.79,2a.82.82,0,0,0,.57.26.75.75,0,0,0,.57-.23l2.05-2.05,2.05,2.05a.78.78,0,0,0,.58.23.82.82,0,0,0,.56-.26l1.79-2,2,2a.78.78,0,0,0,.55.23.8.8,0,0,0,.3-.06.78.78,0,0,0,.48-.72V6.51A.78.78,0,0,0,20.05,5.73Z"/><path class="cls-2" d="M22.14,0H2.86A2.86,2.86,0,0,0,0,2.86V7.55a2.86,2.86,0,0,0,2.6,2.84V6.51A2.35,2.35,0,0,1,5,4.17h15.1A2.35,2.35,0,0,1,22.4,6.51v3.88A2.86,2.86,0,0,0,25,7.55V2.86A2.86,2.86,0,0,0,22.14,0Z"/><path class="cls-3" d="M8.5,10.5h8a1,1,0,0,1,1,1h0a1,1,0,0,1-1,1h-8a1,1,0,0,1-1-1h0A1,1,0,0,1,8.5,10.5Z"/><path class="cls-3" d="M8.5,14.5h8a1,1,0,0,1,1,1h0a1,1,0,0,1-1,1h-8a1,1,0,0,1-1-1h0A1,1,0,0,1,8.5,14.5Z"/></g></g></svg>