<svg xmlns="http://www.w3.org/2000/svg" viewBox="0 0 25 22.92"><defs><style>.cls-1{fill:#91e0c5;}.cls-2{fill:#12976a;}</style></defs><title>credit-card</title><g id="Слой_2" data-name="Слой 2"><g id="Слой_1-2" data-name="Слой 1"><path class="cls-1" d="M25,2.86A2.86,2.86,0,0,0,22.14,0H7A2.86,2.86,0,0,0,4.17,2.86v.27H25Z"/><path class="cls-1" d="M4.17,4.17V6.25H18a5,5,0,0,1,5,4.95v3.28A2.87,2.87,0,0,0,25,11.72V4.17Z"/><path class="cls-2" d="M18,8.33H2.86A2.87,2.87,0,0,0,0,11.2v8.85a2.87,2.87,0,0,0,2.86,2.87H18a2.87,2.87,0,0,0,2.86-2.87V11.2A2.87,2.87,0,0,0,18,8.33ZM2.86,12.76A2.09,2.09,0,0,1,5,10.68H6.51a2.08,2.08,0,0,1,2.08,2.08v1.56A2.08,2.08,0,0,1,6.51,16.4H5a2.09,2.09,0,0,1-2.09-2.08Zm14.07,7.81h-13a1,1,0,1,1,0-2.08h13a1,1,0,0,1,0,2.08Z"/></g></g></svg>