<svg width="18" height="18" viewBox="0 0 18 18" fill="none" xmlns="http://www.w3.org/2000/svg">
<path d="M9.00001 0C6.30901 0.00330469 4.1283 2.18398 4.125 4.87501V7.875C4.125 8.08211 4.29291 8.25001 4.50001 8.25001H6.00002C6.20713 8.25001 6.37504 8.08211 6.37504 7.875V4.87501C6.375 3.42524 7.55027 2.25 9.00001 2.25C10.4497 2.25 11.625 3.42524 11.625 4.87501V7.875C11.625 8.08211 11.7929 8.25001 12 8.25001H13.5C13.7071 8.25001 13.875 8.08211 13.875 7.875V4.87501C13.8717 2.18398 11.691 0.00330469 9.00001 0Z" fill="#455A64"/>
<path d="M4.49999 7.5H13.5C14.5355 7.5 15.375 8.33946 15.375 9.37499V16.125C15.375 17.1606 14.5355 18 13.5 18H4.49999C3.46446 18 2.625 17.1606 2.625 16.125V9.37502C2.625 8.33946 3.46446 7.5 4.49999 7.5Z" fill="#FFC107"/>
<path d="M10.875 11.625C10.8794 10.5895 10.0434 9.74644 9.00792 9.74208C7.97239 9.73772 7.12938 10.5736 7.12502 11.6092C7.12199 12.3249 7.52675 12.98 8.16824 13.2975L7.87873 15.3225C7.84973 15.5276 7.99246 15.7173 8.19753 15.7463C8.2149 15.7488 8.23244 15.75 8.24998 15.75H9.74999C9.9571 15.7521 10.1267 15.5859 10.1288 15.3788C10.1289 15.3597 10.1277 15.3406 10.125 15.3217L9.83546 13.2967C10.4691 12.9796 10.8709 12.3335 10.875 11.625Z" fill="#455A64"/>
</svg>
