<svg width="50" height="58" viewBox="0 0 50 58" fill="none" xmlns="http://www.w3.org/2000/svg">
<path d="M47.549 0H13.2353C11.8816 0 10.7843 1.09107 10.7843 2.43698V46.3025C10.7843 47.6484 11.8816 48.7395 13.2353 48.7395H47.549C48.9026 48.7395 50 47.6484 50 46.3025V2.43698C50 1.09107 48.9026 0 47.549 0Z" fill="#EBEDF4"/>
<path d="M0 11.6975C0 11.0511 0.258228 10.4313 0.717876 9.97427C1.17752 9.51725 1.80094 9.2605 2.45098 9.2605H31.6397C32.2558 9.26055 32.8493 9.49129 33.302 9.90678L35.7843 12.1849L38.3598 14.3796C38.6283 14.6084 38.8438 14.8923 38.9915 15.2118C39.1393 15.5312 39.2157 15.8786 39.2157 16.2302V55.563C39.2157 56.2093 38.9575 56.8292 38.4978 57.2862C38.0382 57.7432 37.4147 58 36.7647 58H2.45098C1.80094 58 1.17752 57.7432 0.717876 57.2862C0.258228 56.8292 0 56.2093 0 55.563V11.6975Z" fill="#12976A"/>
<path opacity="0.3" d="M27.9411 28.7563H6.86272C6.32126 28.7563 5.88232 29.1927 5.88232 29.7311C5.88232 30.2694 6.32126 30.7059 6.86272 30.7059H27.9411C28.4826 30.7059 28.9215 30.2694 28.9215 29.7311C28.9215 29.1927 28.4826 28.7563 27.9411 28.7563Z" fill="white"/>
<path opacity="0.3" d="M15.6862 35.5798H6.86272C6.32126 35.5798 5.88232 36.0163 5.88232 36.5546C5.88232 37.093 6.32126 37.5294 6.86272 37.5294H15.6862C16.2277 37.5294 16.6666 37.093 16.6666 36.5546C16.6666 36.0163 16.2277 35.5798 15.6862 35.5798Z" fill="white"/>
<path opacity="0.2" d="M31.3726 9.2605V14.1344C31.3726 14.91 31.6824 15.6539 32.234 16.2023C32.7856 16.7507 33.5337 17.0588 34.3137 17.0588H39.2157" stroke="white" stroke-width="3"/>
</svg>
